# xmcd
#
# Track frame offsets: 
#        150
#        14807
#        24497
#        34662
#        50392
#        62280
#        77400
#        90020
#        102237
#        118300
#        127612
#        144787
#        156012
#        169542
#
# Disc length: 2508 seconds
#
# Revision: 3
# Processed by: cddbd v1.5.2PL0 Copyright (c) Steve Scherf et al.
# Submitted via: ExactAudioCopy v0.99pb1
#
DISCID=9709ca0e
DTITLE=Lagwagon - Blaze
DYEAR=2003
DGENRE=Rock
TTITLE0=Burn
TTITLE1=E Dagger
TTITLE2=Dancing the collapse
TTITLE3=I must be hateful
TTITLE4=Falling apart
TTITLE5=Max says
TTITLE6=Billy club
TTITLE7=Dividers
TTITLE8=Never stops
TTITLE9=Dinner and a movie
TTITLE10=Lullaby
TTITLE11=Billionaire
TTITLE12=Heartbreak
TTITLE13=Baggage
EXTD=0\n\n\n
EXTT0=
EXTT1=
EXTT2=
EXTT3=
EXTT4=
EXTT5=
EXTT6=
EXTT7=
EXTT8=
EXTT9=
EXTT10=
EXTT11=
EXTT12=
EXTT13=
PLAYORDER=
